<svg xmlns="http://www.w3.org/2000/svg" viewBox="0 0 84 84" width="84" height="84">
  <defs>
    <filter id="bb" x="-100%" y="-100%" width="300%" height="300%">
      <feGaussianBlur stdDeviation="8"/>
    </filter>
    <filter id="mb" x="-80%" y="-80%" width="260%" height="260%">
      <feGaussianBlur stdDeviation="4"/>
    </filter>
  </defs>
  <g opacity="0.7">
    <ellipse cx="42" cy="42" rx="40" ry="40" fill="#00ff88" opacity="0.09" filter="url(#bb)"/>
    <ellipse cx="42" cy="42" rx="26" ry="26" fill="#44ffaa" opacity="0.16" filter="url(#mb)"/>
  </g>
  <g shape-rendering="crispEdges">
    <rect x="30" y="6" width="6" height="6" fill="#001511"/>
    <rect x="36" y="6" width="6" height="6" fill="#003d22"/>
    <rect x="42" y="6" width="6" height="6" fill="#007a44"/>
    <rect x="48" y="6" width="6" height="6" fill="#00cc77"/>
    <rect x="54" y="6" width="6" height="6" fill="#44ffaa"/>
    <rect x="18" y="12" width="6" height="6" fill="#003d22"/>
    <rect x="24" y="12" width="6" height="6" fill="#007a44"/>
    <rect x="30" y="12" width="6" height="6" fill="#00cc77"/>
    <rect x="36" y="12" width="6" height="6" fill="#44ffaa"/>
    <rect x="42" y="12" width="6" height="6" fill="#aaffe0"/>
    <rect x="48" y="12" width="6" height="6" fill="#44ffaa"/>
    <rect x="54" y="12" width="6" height="6" fill="#00cc77"/>
    <rect x="60" y="12" width="6" height="6" fill="#003d22"/>
    <rect x="12" y="18" width="6" height="6" fill="#001511"/>
    <rect x="18" y="18" width="6" height="6" fill="#003d22"/>
    <rect x="24" y="18" width="6" height="6" fill="#007a44"/>
    <rect x="30" y="18" width="6" height="6" fill="#00cc77"/>
    <rect x="36" y="18" width="6" height="6" fill="#44ffaa"/>
    <rect x="42" y="18" width="6" height="6" fill="#aaffe0"/>
    <rect x="48" y="18" width="6" height="6" fill="#44ffaa"/>
    <rect x="54" y="18" width="6" height="6" fill="#00cc77"/>
    <rect x="60" y="18" width="6" height="6" fill="#003d22"/>
    <rect x="66" y="18" width="6" height="6" fill="#001511"/>
    <rect x="12" y="24" width="6" height="6" fill="#001511"/>
    <rect x="18" y="24" width="6" height="6" fill="#003d22"/>
    <rect x="24" y="24" width="6" height="6" fill="#007a44"/>
    <rect x="30" y="24" width="6" height="6" fill="#00cc77"/>
    <rect x="36" y="24" width="6" height="6" fill="#44ffaa"/>
    <rect x="42" y="24" width="6" height="6" fill="#00cc77"/>
    <rect x="48" y="24" width="6" height="6" fill="#007a44"/>
    <rect x="54" y="24" width="6" height="6" fill="#003d22"/>
    <rect x="60" y="24" width="6" height="6" fill="#001511"/>
    <rect x="6" y="30" width="6" height="6" fill="#001511"/>
    <rect x="12" y="30" width="6" height="6" fill="#003d22"/>
    <rect x="18" y="30" width="6" height="6" fill="#007a44"/>
    <rect x="24" y="30" width="6" height="6" fill="#00cc77"/>
    <rect x="30" y="30" width="6" height="6" fill="#44ffaa"/>
    <rect x="36" y="30" width="6" height="6" fill="#00cc77"/>
    <rect x="42" y="30" width="6" height="6" fill="#007a44"/>
    <rect x="48" y="30" width="6" height="6" fill="#003d22"/>
    <rect x="54" y="30" width="6" height="6" fill="#003d22"/>
    <rect x="60" y="30" width="6" height="6" fill="#001511"/>
    <rect x="66" y="30" width="6" height="6" fill="#001511"/>
    <rect x="6" y="36" width="6" height="6" fill="#001511"/>
    <rect x="12" y="36" width="6" height="6" fill="#003d22"/>
    <rect x="18" y="36" width="6" height="6" fill="#003d22"/>
    <rect x="24" y="36" width="6" height="6" fill="#007a44"/>
    <rect x="30" y="36" width="6" height="6" fill="#00cc77"/>
    <rect x="36" y="36" width="6" height="6" fill="#007a44"/>
    <rect x="42" y="36" width="6" height="6" fill="#003d22"/>
    <rect x="48" y="36" width="6" height="6" fill="#003d22"/>
    <rect x="54" y="36" width="6" height="6" fill="#001511"/>
    <rect x="60" y="36" width="6" height="6" fill="#001511"/>
    <rect x="66" y="36" width="6" height="6" fill="#001511"/>
    <rect x="6" y="42" width="6" height="6" fill="#001511"/>
    <rect x="12" y="42" width="6" height="6" fill="#001511"/>
    <rect x="18" y="42" width="6" height="6" fill="#003d22"/>
    <rect x="24" y="42" width="6" height="6" fill="#003d22"/>
    <rect x="30" y="42" width="6" height="6" fill="#007a44"/>
    <rect x="36" y="42" width="6" height="6" fill="#003d22"/>
    <rect x="42" y="42" width="6" height="6" fill="#003d22"/>
    <rect x="48" y="42" width="6" height="6" fill="#001511"/>
    <rect x="54" y="42" width="6" height="6" fill="#001511"/>
    <rect x="60" y="42" width="6" height="6" fill="#001511"/>
    <rect x="66" y="42" width="6" height="6" fill="#001511"/>
    <rect x="6" y="48" width="6" height="6" fill="#001511"/>
    <rect x="12" y="48" width="6" height="6" fill="#001511"/>
    <rect x="18" y="48" width="6" height="6" fill="#001511"/>
    <rect x="24" y="48" width="6" height="6" fill="#003d22"/>
    <rect x="30" y="48" width="6" height="6" fill="#001511"/>
    <rect x="36" y="48" width="6" height="6" fill="#001511"/>
    <rect x="42" y="48" width="6" height="6" fill="#001511"/>
    <rect x="48" y="48" width="6" height="6" fill="#001511"/>
    <rect x="54" y="48" width="6" height="6" fill="#001511"/>
    <rect x="60" y="48" width="6" height="6" fill="#001511"/>
    <rect x="66" y="48" width="6" height="6" fill="#001511"/>
    <rect x="12" y="54" width="6" height="6" fill="#001511"/>
    <rect x="18" y="54" width="6" height="6" fill="#001511"/>
    <rect x="24" y="54" width="6" height="6" fill="#001511"/>
    <rect x="30" y="54" width="6" height="6" fill="#001511"/>
    <rect x="36" y="54" width="6" height="6" fill="#001511"/>
    <rect x="42" y="54" width="6" height="6" fill="#001511"/>
    <rect x="48" y="54" width="6" height="6" fill="#001511"/>
    <rect x="54" y="54" width="6" height="6" fill="#001511"/>
    <rect x="60" y="54" width="6" height="6" fill="#001511"/>
    <rect x="66" y="54" width="6" height="6" fill="#001511"/>
    <rect x="12" y="60" width="6" height="6" fill="#001511"/>
    <rect x="18" y="60" width="6" height="6" fill="#001511"/>
    <rect x="24" y="60" width="6" height="6" fill="#001511"/>
    <rect x="30" y="60" width="6" height="6" fill="#001511"/>
    <rect x="36" y="60" width="6" height="6" fill="#001511"/>
    <rect x="42" y="60" width="6" height="6" fill="#001511"/>
    <rect x="48" y="60" width="6" height="6" fill="#001511"/>
    <rect x="54" y="60" width="6" height="6" fill="#001511"/>
    <rect x="60" y="60" width="6" height="6" fill="#001511"/>
    <rect x="66" y="60" width="6" height="6" fill="#001511"/>
    <rect x="18" y="66" width="6" height="6" fill="#001511"/>
    <rect x="24" y="66" width="6" height="6" fill="#001511"/>
    <rect x="30" y="66" width="6" height="6" fill="#001511"/>
    <rect x="36" y="66" width="6" height="6" fill="#001511"/>
    <rect x="42" y="66" width="6" height="6" fill="#001511"/>
    <rect x="48" y="66" width="6" height="6" fill="#001511"/>
    <rect x="54" y="66" width="6" height="6" fill="#001511"/>
    <rect x="60" y="66" width="6" height="6" fill="#001511"/>
    <rect x="30" y="72" width="6" height="6" fill="#001511"/>
    <rect x="36" y="72" width="6" height="6" fill="#001511"/>
    <rect x="42" y="72" width="6" height="6" fill="#001511"/>
    <rect x="48" y="72" width="6" height="6" fill="#001511"/>
  </g>
</svg>
